<?xml version="1.0" encoding="utf-8"?>
<!-- Generator: Adobe Illustrator 16.2.1, SVG Export Plug-In . SVG Version: 6.00 Build 0)  -->
<!DOCTYPE svg PUBLIC "-//W3C//DTD SVG 1.1//EN" "http://www.w3.org/Graphics/SVG/1.1/DTD/svg11.dtd">
<svg version="1.1" id="Capa_1" xmlns="http://www.w3.org/2000/svg" xmlns:xlink="http://www.w3.org/1999/xlink" x="0px" y="0px"
	 width="13.026px" height="13.025px" viewBox="0 0 13.026 13.025" enable-background="new 0 0 13.026 13.025" xml:space="preserve">
<path fill="#81B9BC" d="M13.026,6.512c0,3.596-2.915,6.513-6.513,6.513C2.915,13.025,0,10.108,0,6.512S2.915,0,6.513,0
	C10.111,0,13.026,2.917,13.026,6.512"/>
<path fill="#FFFFFF" d="M5.048,9.84c-0.192,0-0.385-0.072-0.534-0.215L3.161,8.329C2.854,8.033,2.842,7.546,3.137,7.238
	c0.295-0.309,0.783-0.318,1.09-0.023l0.813,0.778l4.231-4.184c0.304-0.298,0.791-0.295,1.09,0.006
	c0.3,0.305,0.297,0.792-0.007,1.092L5.59,9.617C5.439,9.765,5.245,9.84,5.048,9.84"/>
</svg>
