<?xml version="1.0" encoding="utf-8"?>
<!-- Generator: Adobe Illustrator 16.2.1, SVG Export Plug-In . SVG Version: 6.00 Build 0)  -->
<!DOCTYPE svg PUBLIC "-//W3C//DTD SVG 1.1//EN" "http://www.w3.org/Graphics/SVG/1.1/DTD/svg11.dtd">
<svg version="1.1" id="Capa_1" xmlns="http://www.w3.org/2000/svg" xmlns:xlink="http://www.w3.org/1999/xlink" x="0px" y="0px"
	 width="90.782px" height="90.782px" viewBox="0 0 90.782 90.782" enable-background="new 0 0 90.782 90.782" xml:space="preserve">
<path fill="#81B9BC" d="M90.782,45.391c0,25.069-20.321,45.391-45.391,45.391S0,70.46,0,45.391S20.322,0,45.392,0
	S90.782,20.322,90.782,45.391"/>
<g>
	<path fill="#FFFFFF" d="M46.93,63.53c-0.12,0.127-0.192,0.301-0.192,0.474s0.072,0.346,0.192,0.474
		c0.127,0.119,0.3,0.192,0.474,0.192c0.173,0,0.346-0.073,0.473-0.192c0.12-0.128,0.193-0.301,0.193-0.474s-0.073-0.347-0.193-0.474
		C47.623,63.284,47.183,63.284,46.93,63.53"/>
	<path fill="#FFFFFF" d="M36.867,69.329H24.492V36.043h12.375V69.329z M25.689,68.132h9.98V37.241h-9.98V68.132z"/>
	<path fill="#FFFFFF" d="M66.29,69.329H53.915V36.043H66.29V69.329z M55.113,68.132h9.979V37.241h-9.979V68.132z"/>
	<path fill="#FFFFFF" d="M54.831,69.329H35.67V21.454h19.161V69.329z M36.867,68.132h16.767v-45.48H36.867V68.132z"/>
	<path fill="#FFFFFF" d="M33.225,46.591h-5.09v-6.315h5.09V46.591z M28.934,45.793h3.493v-4.719h-3.493V45.793z"/>
	<path fill="#FFFFFF" d="M33.225,55.281h-5.09v-6.315h5.09V55.281z M28.934,54.483h3.493v-4.719h-3.493V54.483z"/>
	<path fill="#FFFFFF" d="M33.225,63.745h-5.09v-6.316h5.09V63.745z M28.934,62.946h3.493v-4.719h-3.493V62.946z"/>
	<path fill="#FFFFFF" d="M44.104,36.355h-5.091V30.04h5.091V36.355z M39.811,35.556h3.493v-4.719h-3.493V35.556z"/>
	<path fill="#FFFFFF" d="M44.104,46.068h-5.091v-6.315h5.091V46.068z M39.811,45.271h3.493v-4.718h-3.493V45.271z"/>
	<path fill="#FFFFFF" d="M49.702,69.046H40.59V58.432h9.112V69.046z M41.389,68.247h7.516v-9.018h-7.516V68.247z"/>
	<path fill="#FFFFFF" d="M44.104,55.281h-5.091v-6.315h5.091V55.281z M39.811,54.483h3.493v-4.719h-3.493V54.483z"/>
	<path fill="#FFFFFF" d="M51.428,36.355h-5.09V30.04h5.09V36.355z M47.136,35.556h3.493v-4.719h-3.493V35.556z"/>
	<path fill="#FFFFFF" d="M51.428,46.068h-5.09v-6.315h5.09V46.068z M47.136,45.271h3.493v-4.718h-3.493V45.271z"/>
	<path fill="#FFFFFF" d="M51.428,55.281h-5.09v-6.315h5.09V55.281z M47.136,54.483h3.493v-4.719h-3.493V54.483z"/>
	<path fill="#FFFFFF" d="M62.646,46.591h-5.09v-6.315h5.09V46.591z M58.355,45.793h3.493v-4.719h-3.493V45.793z"/>
	<path fill="#FFFFFF" d="M62.646,55.281h-5.09v-6.315h5.09V55.281z M58.355,54.483h3.493v-4.719h-3.493V54.483z"/>
	<path fill="#FFFFFF" d="M62.646,63.745h-5.09v-6.316h5.09V63.745z M58.355,62.946h3.493v-4.719h-3.493V62.946z"/>
	<rect x="39.338" y="58.327" fill="#FFFFFF" width="11.616" height="0.799"/>
</g>
</svg>
