<?xml version="1.0" encoding="utf-8"?>
<!-- Generator: Adobe Illustrator 16.2.1, SVG Export Plug-In . SVG Version: 6.00 Build 0)  -->
<!DOCTYPE svg PUBLIC "-//W3C//DTD SVG 1.1//EN" "http://www.w3.org/Graphics/SVG/1.1/DTD/svg11.dtd">
<svg version="1.1" id="Capa_1" xmlns="http://www.w3.org/2000/svg" xmlns:xlink="http://www.w3.org/1999/xlink" x="0px" y="0px"
	 width="90.784px" height="90.782px" viewBox="0 0 90.784 90.782" enable-background="new 0 0 90.784 90.782" xml:space="preserve">
<path fill="#81B9BC" d="M90.784,45.392c0,25.068-20.322,45.391-45.392,45.391C20.323,90.782,0,70.46,0,45.392
	C0,20.322,20.323,0,45.392,0C70.461,0,90.784,20.322,90.784,45.392"/>
<path fill="#FFFFFF" d="M33.037,47.466h10.809v-7.721H33.037V47.466z M34.583,43.606h7.721v2.314h-7.721V43.606z M42.304,42.059
	h-7.721v-0.772h7.721V42.059z"/>
<path fill="#FFFFFF" d="M33.037,59.817h10.809v-9.264H33.037V59.817z M37.671,54.415h-3.088v-2.318h3.088V54.415z M34.583,55.956
	h3.088v2.318h-3.088V55.956z M39.217,55.956h3.088v2.318h-3.088V55.956z M42.304,54.415h-3.088v-2.318h3.088V54.415z"/>
<path fill="#FFFFFF" d="M46.938,47.466h10.809v-7.721H46.938V47.466z M48.48,45.148h7.721v0.772H48.48V45.148z M56.201,43.606H48.48
	v-2.318h7.721V43.606z"/>
<path fill="#FFFFFF" d="M67.783,56.729c-0.426,0-0.772,0.346-0.772,0.772v0.772h-0.769v-0.772c0-0.427-0.348-0.772-0.774-0.772
	c-0.426,0-0.772,0.346-0.772,0.772v0.772h-0.772V42.674c0.403,0.182,0.83,0.279,1.256,0.279c0.828,0,1.65-0.335,2.262-0.991
	c0.584-0.63,0.882-1.485,0.814-2.345c-0.068-0.859-0.498-1.656-1.177-2.187L47.492,22.111l-2.1-1.952l-2.051,1.908L23.706,37.43
	c-0.679,0.531-1.108,1.328-1.177,2.187c-0.067,0.86,0.231,1.715,0.819,2.345c0.919,0.995,2.33,1.244,3.514,0.712v15.601h-0.773
	v-0.772c0-0.427-0.347-0.772-0.773-0.772c-0.426,0-0.773,0.346-0.773,0.772v0.772h-0.769v-0.772c0-0.427-0.347-0.772-0.773-0.772
	c-0.426,0-0.773,0.346-0.773,0.772v6.948c0,0.427,0.347,0.772,0.773,0.772c0.426,0,0.773-0.346,0.773-0.772v-0.769h0.769v0.769
	c0,0.427,0.347,0.772,0.773,0.772c0.426,0,0.773-0.346,0.773-0.772v-0.769h0.773v1.541h37.061v-1.541h0.772v0.769
	c0,0.427,0.347,0.772,0.772,0.772c0.427,0,0.774-0.346,0.774-0.772v-0.769h0.769v0.769c0,0.427,0.347,0.772,0.772,0.772
	c0.427,0,0.772-0.346,0.772-0.772v-6.948C68.555,57.075,68.209,56.729,67.783,56.729 M24.475,40.91
	c-0.294-0.321-0.441-0.736-0.407-1.169c0.037-0.437,0.245-0.825,0.588-1.093L44.34,23.243l1.052-0.976l1.101,1.017l19.635,15.364
	c0.344,0.268,0.555,0.656,0.588,1.093c0.035,0.433-0.112,0.852-0.406,1.169c-0.547,0.588-1.436,0.663-2.074,0.174l-0.312-0.238
	l-18.53-14.285L27.163,40.612h-0.004l-0.61,0.472C25.911,41.573,25.022,41.498,24.475,40.91 M23.774,59.817h0.768v2.318h-0.768
	V59.817z M26.089,59.817h0.773v2.318h-0.773V59.817z M48.48,52.096h7.721v11.582H48.48V52.096z M62.381,63.678h-4.635V50.554H46.938
	v13.124H28.403V41.604l16.989-13.095l16.989,13.095V63.678z M63.922,59.817h0.772v2.318h-0.772V59.817z M66.242,59.817h0.769v2.318
	h-0.769V59.817z"/>
</svg>
