<?xml version="1.0" encoding="utf-8"?>
<!-- Generator: Adobe Illustrator 16.2.1, SVG Export Plug-In . SVG Version: 6.00 Build 0)  -->
<!DOCTYPE svg PUBLIC "-//W3C//DTD SVG 1.1//EN" "http://www.w3.org/Graphics/SVG/1.1/DTD/svg11.dtd">
<svg version="1.1" id="Capa_1" xmlns="http://www.w3.org/2000/svg" xmlns:xlink="http://www.w3.org/1999/xlink" x="0px" y="0px"
	 width="90.783px" height="90.783px" viewBox="0 0 90.783 90.783" enable-background="new 0 0 90.783 90.783" xml:space="preserve">
<path fill="#B00054" d="M90.783,45.391c0,25.069-20.322,45.392-45.391,45.392C20.323,90.783,0,70.46,0,45.391
	C0,20.322,20.323,0,45.393,0C70.461,0,90.783,20.322,90.783,45.391"/>
<g>
	<path fill="#FFFFFF" d="M20.734,41.938h3.585v-4.183h-3.585V41.938z M21.331,40.145h0.897v1.195h-0.897V40.145z M22.825,40.145
		h0.896v1.195h-0.896V40.145z M23.722,39.545h-0.896v-1.195h0.896V39.545z M22.229,39.545h-0.897v-1.195h0.897V39.545z"/>
	<path fill="#FFFFFF" d="M26.419,41.938h3.585v-4.183h-3.585V41.938z M27.017,40.145h0.896v1.195h-0.896V40.145z M28.51,40.145
		h0.897v1.195H28.51V40.145z M29.407,39.545H28.51v-1.195h0.897V39.545z M27.913,39.545h-0.896v-1.195h0.896V39.545z"/>
	<path fill="#FFFFFF" d="M32.104,41.938h3.585v-4.183h-3.585V41.938z M32.7,40.145h0.896v1.195H32.7V40.145z M34.194,40.145h0.896
		v1.195h-0.896V40.145z M35.092,39.545h-0.896v-1.195h0.896V39.545z M33.599,39.545h-0.897v-1.195h0.897V39.545z"/>
	<path fill="#FFFFFF" d="M37.788,41.938h3.585v-4.183h-3.585V41.938z M38.385,40.145h0.897v1.195h-0.897V40.145z M39.879,40.145
		h0.897v1.195h-0.897V40.145z M40.776,39.545h-0.897v-1.195h0.897V39.545z M39.282,39.545h-0.897v-1.195h0.897V39.545z"/>
	<path fill="#FFFFFF" d="M43.474,41.938h3.585v-4.183h-3.585V41.938z M44.07,40.145h0.896v1.195H44.07V40.145z M45.564,40.145h0.896
		v1.195h-0.896V40.145z M46.461,39.545h-0.896v-1.195h0.896V39.545z M44.967,39.545H44.07v-1.195h0.896V39.545z"/>
	<path fill="#FFFFFF" d="M49.157,41.938h3.585v-4.183h-3.585V41.938z M49.754,40.145h0.897v1.195h-0.897V40.145z M51.248,40.145
		h0.897v1.195h-0.897V40.145z M52.146,39.545h-0.897v-1.195h0.897V39.545z M50.651,39.545h-0.897v-1.195h0.897V39.545z"/>
	<path fill="#FFFFFF" d="M54.842,41.938h3.585v-4.183h-3.585V41.938z M55.439,40.145h0.896v1.195h-0.896V40.145z M56.934,40.145
		h0.896v1.195h-0.896V40.145z M57.83,39.545h-0.896v-1.195h0.896V39.545z M56.336,39.545h-0.896v-1.195h0.896V39.545z"/>
	<path fill="#FFFFFF" d="M60.527,41.938h3.585v-4.183h-3.585V41.938z M61.123,40.145h0.897v1.195h-0.897V40.145z M62.618,40.145
		h0.897v1.195h-0.897V40.145z M63.516,39.545h-0.897v-1.195h0.897V39.545z M62.021,39.545h-0.897v-1.195h0.897V39.545z"/>
	<path fill="#FFFFFF" d="M66.211,41.938h3.585v-4.183h-3.585V41.938z M66.809,40.145h0.896v1.195h-0.896V40.145z M68.302,40.145
		h0.897v1.195h-0.897V40.145z M69.199,39.545h-0.897v-1.195h0.897V39.545z M67.705,39.545h-0.896v-1.195h0.896V39.545z"/>
	<path fill="#FFFFFF" d="M20.734,47.558h3.585v-4.184h-3.585V47.558z M21.331,45.763h0.897v1.195h-0.897V45.763z M22.825,45.763
		h0.896v1.195h-0.896V45.763z M23.722,45.166h-0.896v-1.195h0.896V45.166z M22.229,45.166h-0.897v-1.195h0.897V45.166z"/>
	<path fill="#FFFFFF" d="M26.419,47.558h3.585v-4.184h-3.585V47.558z M27.017,45.763h0.896v1.195h-0.896V45.763z M28.51,45.763
		h0.897v1.195H28.51V45.763z M29.407,45.166H28.51v-1.195h0.897V45.166z M27.913,45.166h-0.896v-1.195h0.896V45.166z"/>
	<path fill="#FFFFFF" d="M32.104,47.558h3.585v-4.184h-3.585V47.558z M32.7,45.763h0.896v1.195H32.7V45.763z M34.194,45.763h0.896
		v1.195h-0.896V45.763z M35.092,45.166h-0.896v-1.195h0.896V45.166z M33.599,45.166h-0.897v-1.195h0.897V45.166z"/>
	<path fill="#FFFFFF" d="M37.788,47.558h3.585v-4.184h-3.585V47.558z M38.385,45.763h0.897v1.195h-0.897V45.763z M39.879,45.763
		h0.897v1.195h-0.897V45.763z M40.776,45.166h-0.897v-1.195h0.897V45.166z M39.282,45.166h-0.897v-1.195h0.897V45.166z"/>
	<path fill="#FFFFFF" d="M43.474,47.558h3.585v-4.184h-3.585V47.558z M44.07,45.763h0.896v1.195H44.07V45.763z M45.564,45.763h0.896
		v1.195h-0.896V45.763z M46.461,45.166h-0.896v-1.195h0.896V45.166z M44.967,45.166H44.07v-1.195h0.896V45.166z"/>
	<path fill="#FFFFFF" d="M49.157,47.558h3.585v-4.184h-3.585V47.558z M49.754,45.763h0.897v1.195h-0.897V45.763z M51.248,45.763
		h0.897v1.195h-0.897V45.763z M52.146,45.166h-0.897v-1.195h0.897V45.166z M50.651,45.166h-0.897v-1.195h0.897V45.166z"/>
	<path fill="#FFFFFF" d="M54.842,47.558h3.585v-4.184h-3.585V47.558z M55.439,45.763h0.896v1.195h-0.896V45.763z M56.934,45.763
		h0.896v1.195h-0.896V45.763z M57.83,45.166h-0.896v-1.195h0.896V45.166z M56.336,45.166h-0.896v-1.195h0.896V45.166z"/>
	<path fill="#FFFFFF" d="M60.527,47.558h3.585v-4.184h-3.585V47.558z M61.123,45.763h0.897v1.195h-0.897V45.763z M62.618,45.763
		h0.897v1.195h-0.897V45.763z M63.516,45.166h-0.897v-1.195h0.897V45.166z M62.021,45.166h-0.897v-1.195h0.897V45.166z"/>
	<path fill="#FFFFFF" d="M66.211,47.558h3.585v-4.184h-3.585V47.558z M66.809,45.763h0.896v1.195h-0.896V45.763z M68.302,45.763
		h0.897v1.195h-0.897V45.763z M69.199,45.166h-0.897v-1.195h0.897V45.166z M67.705,45.166h-0.896v-1.195h0.896V45.166z"/>
	<path fill="#FFFFFF" d="M20.734,53.177h3.585v-4.183h-3.585V53.177z M21.331,51.384h0.897v1.194h-0.897V51.384z M22.825,51.384
		h0.896v1.194h-0.896V51.384z M23.722,50.786h-0.896v-1.194h0.896V50.786z M22.229,50.786h-0.897v-1.194h0.897V50.786z"/>
	<path fill="#FFFFFF" d="M26.419,53.177h3.585v-4.183h-3.585V53.177z M27.017,51.384h0.896v1.194h-0.896V51.384z M28.51,51.384
		h0.897v1.194H28.51V51.384z M29.407,50.786H28.51v-1.194h0.897V50.786z M27.913,50.786h-0.896v-1.194h0.896V50.786z"/>
	<path fill="#FFFFFF" d="M32.104,53.177h3.585v-4.183h-3.585V53.177z M32.7,51.384h0.896v1.194H32.7V51.384z M34.194,51.384h0.896
		v1.194h-0.896V51.384z M35.092,50.786h-0.896v-1.194h0.896V50.786z M33.599,50.786h-0.897v-1.194h0.897V50.786z"/>
	<path fill="#FFFFFF" d="M37.788,53.177h3.585v-4.183h-3.585V53.177z M38.385,51.384h0.897v1.194h-0.897V51.384z M39.879,51.384
		h0.897v1.194h-0.897V51.384z M40.776,50.786h-0.897v-1.194h0.897V50.786z M39.282,50.786h-0.897v-1.194h0.897V50.786z"/>
	<path fill="#FFFFFF" d="M43.474,53.177h3.585v-4.183h-3.585V53.177z M44.07,51.384h0.896v1.194H44.07V51.384z M45.564,51.384h0.896
		v1.194h-0.896V51.384z M46.461,50.786h-0.896v-1.194h0.896V50.786z M44.967,50.786H44.07v-1.194h0.896V50.786z"/>
	<path fill="#FFFFFF" d="M49.157,53.177h3.585v-4.183h-3.585V53.177z M49.754,51.384h0.897v1.194h-0.897V51.384z M51.248,51.384
		h0.897v1.194h-0.897V51.384z M52.146,50.786h-0.897v-1.194h0.897V50.786z M50.651,50.786h-0.897v-1.194h0.897V50.786z"/>
	<path fill="#FFFFFF" d="M54.842,53.177h3.585v-4.183h-3.585V53.177z M55.439,51.384h0.896v1.194h-0.896V51.384z M56.934,51.384
		h0.896v1.194h-0.896V51.384z M57.83,50.786h-0.896v-1.194h0.896V50.786z M56.336,50.786h-0.896v-1.194h0.896V50.786z"/>
	<path fill="#FFFFFF" d="M60.527,53.177h3.585v-4.183h-3.585V53.177z M61.123,51.384h0.897v1.194h-0.897V51.384z M62.618,51.384
		h0.897v1.194h-0.897V51.384z M63.516,50.786h-0.897v-1.194h0.897V50.786z M62.021,50.786h-0.897v-1.194h0.897V50.786z"/>
	<path fill="#FFFFFF" d="M66.211,53.177h3.585v-4.183h-3.585V53.177z M66.809,51.384h0.896v1.194h-0.896V51.384z M68.302,51.384
		h0.897v1.194h-0.897V51.384z M69.199,50.786h-0.897v-1.194h0.897V50.786z M67.705,50.786h-0.896v-1.194h0.896V50.786z"/>
	<path fill="#FFFFFF" d="M72.531,61.933H18.253V35.232h54.278V61.933z M19.213,60.974H71.57V36.193H19.213V60.974z"/>
	<path fill="#FFFFFF" d="M70.529,36.193H20.254v-5.123h50.275V36.193z M21.215,35.232h48.354v-3.202H21.215V35.232z"/>
	<path fill="#FFFFFF" d="M72.531,32.031H18.253v-3.182h54.278V32.031z M19.213,31.071H71.57V29.81H19.213V31.071z"/>
	<polygon fill="#FFFFFF" points="27.496,61.454 26.535,61.454 26.535,54.825 72.05,54.825 72.05,55.785 27.496,55.785 	"/>
	<rect x="23.754" y="31.55" fill="#FFFFFF" width="0.32" height="4.163"/>
	<rect x="26.27" y="31.55" fill="#FFFFFF" width="0.319" height="4.163"/>
	<rect x="28.783" y="31.55" fill="#FFFFFF" width="0.32" height="4.163"/>
	<rect x="31.298" y="31.55" fill="#FFFFFF" width="0.32" height="4.163"/>
	<rect x="33.812" y="31.55" fill="#FFFFFF" width="0.319" height="4.163"/>
	<rect x="36.326" y="31.55" fill="#FFFFFF" width="0.32" height="4.163"/>
	<rect x="38.841" y="31.55" fill="#FFFFFF" width="0.32" height="4.163"/>
	<rect x="41.355" y="31.55" fill="#FFFFFF" width="0.319" height="4.163"/>
	<rect x="43.87" y="31.55" fill="#FFFFFF" width="0.32" height="4.163"/>
	<rect x="46.384" y="31.55" fill="#FFFFFF" width="0.32" height="4.163"/>
	<rect x="48.898" y="31.55" fill="#FFFFFF" width="0.319" height="4.163"/>
	<rect x="51.413" y="31.55" fill="#FFFFFF" width="0.32" height="4.163"/>
	<rect x="53.927" y="31.55" fill="#FFFFFF" width="0.32" height="4.163"/>
	<rect x="56.442" y="31.55" fill="#FFFFFF" width="0.319" height="4.163"/>
	<rect x="58.956" y="31.55" fill="#FFFFFF" width="0.32" height="4.163"/>
	<rect x="61.471" y="31.55" fill="#FFFFFF" width="0.32" height="4.163"/>
	<rect x="63.985" y="31.55" fill="#FFFFFF" width="0.32" height="4.163"/>
	<rect x="66.499" y="31.55" fill="#FFFFFF" width="0.32" height="4.163"/>
	<rect x="29.119" y="55.785" fill="#FFFFFF" width="0.32" height="5.669"/>
	<rect x="31.634" y="55.785" fill="#FFFFFF" width="0.32" height="5.669"/>
	<rect x="34.148" y="55.785" fill="#FFFFFF" width="0.319" height="5.669"/>
	<rect x="36.662" y="55.785" fill="#FFFFFF" width="0.32" height="5.669"/>
	<rect x="39.177" y="55.785" fill="#FFFFFF" width="0.32" height="5.669"/>
	<rect x="41.691" y="55.785" fill="#FFFFFF" width="0.319" height="5.669"/>
	<rect x="44.205" y="55.785" fill="#FFFFFF" width="0.32" height="5.669"/>
	<rect x="46.72" y="55.785" fill="#FFFFFF" width="0.32" height="5.669"/>
	<rect x="49.235" y="55.785" fill="#FFFFFF" width="0.32" height="5.669"/>
	<rect x="51.749" y="55.785" fill="#FFFFFF" width="0.32" height="5.669"/>
	<rect x="54.263" y="55.785" fill="#FFFFFF" width="0.32" height="5.669"/>
	<rect x="56.777" y="55.785" fill="#FFFFFF" width="0.319" height="5.669"/>
	<rect x="59.292" y="55.785" fill="#FFFFFF" width="0.32" height="5.669"/>
	<rect x="61.808" y="55.785" fill="#FFFFFF" width="0.319" height="5.669"/>
	<rect x="64.321" y="55.785" fill="#FFFFFF" width="0.32" height="5.669"/>
	<rect x="66.835" y="55.785" fill="#FFFFFF" width="0.32" height="5.669"/>
	<rect x="69.35" y="55.785" fill="#FFFFFF" width="0.319" height="5.669"/>
	<rect x="71.864" y="55.785" fill="#FFFFFF" width="0.32" height="5.669"/>
</g>
</svg>
